<svg xmlns="http://www.w3.org/2000/svg" width="66" height="66"><defs><linearGradient id="linear-gradient" x1=".5" x2=".5" y2="1" gradientUnits="objectBoundingBox"><stop offset="0" stop-color="#73cee3"/><stop offset="1" stop-color="#00a7c1"/></linearGradient></defs><g id="Group_288" data-name="Group 288" transform="translate(-762 -612)"><circle id="Ellipse_66" data-name="Ellipse 66" cx="33" cy="33" r="33" transform="translate(762 612)" fill="url(#linear-gradient)"/><g id="Group_285" data-name="Group 285" transform="translate(904.273 521.133)"><g id="Group_278" data-name="Group 278" transform="translate(-129.444 106.973)" fill="none" stroke="#fff" stroke-linejoin="round" stroke-width="2"><path id="Rectangle_102" data-name="Rectangle 102" d="M0 0h8.345v33.38H0z"/><path id="Line_138" data-name="Line 138" transform="translate(3.477 4.172)" d="M0 0h4.868"/><path id="Line_139" data-name="Line 139" transform="translate(4.868 8.345)" d="M0 0h3.477"/><path id="Line_140" data-name="Line 140" transform="translate(4.868 12.518)" d="M0 0h3.477"/><path id="Line_141" data-name="Line 141" transform="translate(3.477 16.69)" d="M0 0h4.868"/><path id="Line_142" data-name="Line 142" transform="translate(4.868 20.863)" d="M0 0h3.477"/><path id="Line_143" data-name="Line 143" transform="translate(4.868 25.035)" d="M0 0h3.477"/><path id="Line_144" data-name="Line 144" transform="translate(3.477 29.208)" d="M0 0h4.868"/></g><g id="Group_284" data-name="Group 284" transform="translate(-115.798 106.446)"><g id="Group_279" data-name="Group 279" transform="translate(5.439 28.071)"><path id="Path_144" data-name="Path 144" d="M19.001 6.771H.446A.446.446 0 010 6.325 6.332 6.332 0 016.325 0h6.8a6.332 6.332 0 016.326 6.325.447.447 0 01-.45.446zM.912 5.878h17.625A5.439 5.439 0 0013.123.893h-6.8A5.439 5.439 0 00.912 5.878z" fill="#fff" stroke="#fff" stroke-miterlimit="10" stroke-width="1"/></g><g id="Group_280" data-name="Group 280" transform="translate(14.786 5.558)"><path id="Path_145" data-name="Path 145" d="M.346 23.275a.375.375 0 01-.346-.4v-4.349a23.947 23.947 0 011.414-8.158 21.649 21.649 0 014.027-6.916L8.35.114a.316.316 0 01.49 0 .441.441 0 010 .562L5.931 4.014a20.839 20.839 0 00-3.877 6.658 23.048 23.048 0 00-1.362 7.853v4.349a.375.375 0 01-.346.401z" fill="#fff" stroke="#fff" stroke-miterlimit="10" stroke-width="1"/></g><g id="Group_281" data-name="Group 281" transform="translate(5.439 13.38)"><path id="Path_146" data-name="Path 146" d="M9.766 14.691a.436.436 0 01-.44-.432v-.1a10.38 10.38 0 00-.821-4.053A10.544 10.544 0 006.167 6.67L.129.742a.426.426 0 010-.61.445.445 0 01.622 0L6.789 6.06a11.388 11.388 0 012.529 3.716 11.213 11.213 0 01.888 4.383v.1a.436.436 0 01-.44.432z" fill="#fff" stroke="#fff" stroke-miterlimit="10" stroke-width="1"/></g><g id="Group_282" data-name="Group 282" transform="translate(16.723)"><path id="Path_147" data-name="Path 147" d="M.948 14.143c-.184 0-.291 0-.308-.005a.448.448 0 01-.42-.363 16.711 16.711 0 01-.2-3.6 13.6 13.6 0 01.542-3.268 8.735 8.735 0 011.7-3.192 9.153 9.153 0 012.894-2.181 14.179 14.179 0 013.13-1.09A17.089 17.089 0 0111.845 0a.447.447 0 01.436.362 17.692 17.692 0 01.227 3.71 13.939 13.939 0 01-.521 3.346 8.589 8.589 0 01-1.7 3.232h0a8.726 8.726 0 01-2.91 2.149 13.573 13.573 0 01-3.155 1.012 17.454 17.454 0 01-3.274.332zM11.466.904a17.307 17.307 0 00-3 .415A10.433 10.433 0 002.94 4.3C.431 7.2.858 11.917 1.04 13.249a16.756 16.756 0 003.035-.318 12.647 12.647 0 002.937-.944 7.829 7.829 0 002.6-1.921l.338.292-.338-.292a9.98 9.98 0 002-6.01 17.8 17.8 0 00-.146-3.152z" fill="#fff" stroke="#fff" stroke-miterlimit="10" stroke-width="1"/></g><g id="Group_283" data-name="Group 283" transform="translate(0 8.268)"><path id="Path_148" data-name="Path 148" d="M8.934 10.225c-.22 0-.45-.005-.689-.017a8.563 8.563 0 01-5.234-1.823A8.984 8.984 0 01.359 3.507 13.8 13.8 0 01.001.633.447.447 0 01.363.197a14.278 14.278 0 013-.184 11.286 11.286 0 012.7.422 6.973 6.973 0 012.624 1.378 8.561 8.561 0 012.565 4.914 13.467 13.467 0 01.264 2.9.446.446 0 01-.363.42 12.88 12.88 0 01-2.219.178zm2.136-.617zM.906 1.017a13.869 13.869 0 00.328 2.312A8.289 8.289 0 003.595 7.71a7.852 7.852 0 004.674 1.6 13.359 13.359 0 002.356-.091 13.307 13.307 0 00-.253-2.344 7.85 7.85 0 00-2.267-4.391A7.918 7.918 0 003.342.902a14.22 14.22 0 00-2.436.115z" fill="#fff" stroke="#fff" stroke-miterlimit="10" stroke-width="1"/></g></g></g></g></svg>