<svg xmlns="http://www.w3.org/2000/svg" width="66" height="66"><defs><linearGradient id="linear-gradient" x1=".5" x2=".5" y2="1" gradientUnits="objectBoundingBox"><stop offset="0" stop-color="#73cee3"/><stop offset="1" stop-color="#00a7c1"/></linearGradient></defs><g id="Group_319" data-name="Group 319" transform="translate(-742 -709)"><circle id="Ellipse_67" data-name="Ellipse 67" cx="33" cy="33" r="33" transform="translate(742 709)" fill="url(#linear-gradient)"/><g id="Group_272" data-name="Group 272" transform="translate(505.739 -262.36)"><g id="Group_256" data-name="Group 256" transform="translate(362.391 766.275)" fill="none" stroke="#fff" stroke-linejoin="round" stroke-width="2"><path id="Line_135" data-name="Line 135" transform="translate(-115.884 217.918)" d="M31.577 0L0 27.684"/><path id="Path_137" data-name="Path 137" d="M-111.03 240.3l-5.556.2 1.029-5.463" transform="translate(.97 5.302)"/><path id="Path_138" data-name="Path 138" d="M-90.757 221.959l1.029-5.463-5.556.2" transform="translate(6.08 .856)"/><path id="Line_136" data-name="Line 136" transform="translate(-120.63 242.771)" d="M9.62 11.194L0 0"/><path id="Line_137" data-name="Line 137" transform="translate(-85.16 212.928)" d="M9.62 11.194L0 0"/><g id="Group_296" data-name="Group 296" transform="translate(-1739.041 -1907.601)" stroke-linecap="round"><path id="Path_156" data-name="Path 156" d="M1695.9 2195a47.34 47.34 0 01-5.233 5.014 89.735 89.735 0 01-9.351 6.5c-3.143 1.849-6.234 3.659-7.318 5.827" transform="translate(-34.579 -51.994)"/><path id="Path_157" data-name="Path 157" d="M1858.754 2141.761c.571-.834 1.209-2.042.818-2.876-.324-.693.611-2.256.611-2.256l-2.081-1.774a2.05 2.05 0 01-1.89 1.3 2.57 2.57 0 00-1.84 1.551" transform="translate(-190.508)"/><path id="Path_158" data-name="Path 158" d="M1698 2236.346c4.743-2.981 16.669-9.893 20.6-17.346" transform="translate(-55.327 -72.742)"/><path id="Path_159" data-name="Path 159" d="M1637.219 2187.719a7.282 7.282 0 004.1 1.256c6.776 0 15.3-8.8 18.159-11.655 4.878-4.879 8.537-11.521 8.537-14.365 0-1.481-1.032-2-2.032-2.942 0 0-1.626-1.8-3.524-1.395-3.975.852-8.809 5.556-11.519 7.725a50.825 50.825 0 01-7.86 6.1c-4.769 3.047-9.08 4.608-9.08 9.215a7.277 7.277 0 00.821 3.359" transform="translate(0 -20.492)"/><circle id="Ellipse_69" data-name="Ellipse 69" cx="1.897" cy="1.897" r="1.897" transform="translate(1634.542 2163.604)"/></g></g></g></g></svg>