<svg id="Group_171" data-name="Group 171" xmlns="http://www.w3.org/2000/svg" width="41" height="41"><defs><clipPath id="clip-path"><path id="Rectangle_64" data-name="Rectangle 64" fill="none" d="M0 0h41v41H0z"/></clipPath></defs><g id="Group_133" data-name="Group 133" clip-path="url(#clip-path)"><path id="Path_70" data-name="Path 70" d="M35.533 16.253a19.28 19.28 0 00-15.375 30.912l-2.531 6.883 7.764-2.117a19.28 19.28 0 1010.142-35.678" transform="translate(-15.033 -15.032)" fill="#fff"/><path id="Path_71" data-name="Path 71" d="M20.5 41a20.457 20.457 0 01-10.324-2.786l-9.544 2.6 3.122-8.491a20.5 20.5 0 1135.634-19.802A20.494 20.494 0 0120.5 41m-9.951-5.419l.452.28A18.065 18.065 0 106.1 31.4l.4.532-1.943 5.284z" transform="translate(0 -.001)" fill="#3cbb28"/><path id="Path_72" data-name="Path 72" d="M142.8 130.633a1.715 1.715 0 011.393.133 3.131 3.131 0 01.646.557l3.1 3.1a1.71 1.71 0 01.509 1.2 1.826 1.826 0 01-.307 1.043 3.762 3.762 0 01-.432.49c-.5.5-1.005 1-1.5 1.505.141.3.324.588.485.882s.345.582.526.866a14.818 14.818 0 002.271 2.831 14.608 14.608 0 002.626 2.06c.562.367 1.15.69 1.741 1.009q.838-.84 1.679-1.678a1.845 1.845 0 01.735-.47 1.712 1.712 0 011.326.062 2.834 2.834 0 01.8.655q1.533 1.535 3.068 3.069a1.772 1.772 0 01.51 1.2v.08a2.058 2.058 0 01-.2.757 4.731 4.731 0 01-.946 1.07 2.074 2.074 0 01-.476.409 5.576 5.576 0 01-1.629.834 5.423 5.423 0 01-.842.206 3.086 3.086 0 01-.949.04 8.2 8.2 0 01-1.191-.127c-.35-.044-.688-.151-1.033-.221-.341-.107-.69-.189-1.021-.325-.429-.126-.831-.323-1.245-.487-.37-.176-.737-.359-1.1-.545-.5-.291-1.015-.569-1.493-.9-.595-.37-1.142-.809-1.7-1.226a27.412 27.412 0 01-1.785-1.568c-.535-.486-1.018-1.023-1.523-1.539a23.084 23.084 0 01-3.787-5.1 10.274 10.274 0 01-1.029-3.088 8.214 8.214 0 01-.068-2.326 5.665 5.665 0 011.073-2.9 1.272 1.272 0 01.161-.25l.78-.782a1.933 1.933 0 01.834-.532" transform="translate(-129.394 -120.736)" fill="#3cbb28"/></g></svg>