<svg id="Group_168" data-name="Group 168" xmlns="http://www.w3.org/2000/svg" xmlns:xlink="http://www.w3.org/1999/xlink" width="54.837" height="54.611" viewBox="0 0 54.837 54.611">
  <defs>
    <clipPath id="clip-path">
      <path id="Path_62" data-name="Path 62" d="M0,43.272H54.837V-11.339H0Z" transform="translate(0 11.339)" fill="none"/>
    </clipPath>
  </defs>
  <g id="Group_122" data-name="Group 122" transform="translate(0 0)" clip-path="url(#clip-path)">
    <g id="Group_121" data-name="Group 121">
      <path id="Path_61" data-name="Path 61" d="M21.726,0a27.4,27.4,0,0,0-4.571,54.428V33.14H10.538V25.483h6.617V19.833c0-6.555,4-10.124,9.849-10.124a54.894,54.894,0,0,1,5.9.3v6.849l-4.055,0c-3.179,0-3.79,1.507-3.79,3.723v4.893h7.586l-.987,7.658h-6.6V54.611A27.407,27.407,0,0,0,21.726,0" transform="translate(5.693 0)" fill="#fff"/>
    </g>
  </g>
</svg>
