<svg xmlns="http://www.w3.org/2000/svg" xmlns:xlink="http://www.w3.org/1999/xlink" width="66" height="66" viewBox="0 0 66 66">
  <defs>
    <linearGradient id="linear-gradient" x1="0.5" x2="0.5" y2="1" gradientUnits="objectBoundingBox">
      <stop offset="0" stop-color="#73cee3"/>
      <stop offset="1" stop-color="#00a7c1"/>
    </linearGradient>
  </defs>
  <g id="Group_288" data-name="Group 288" transform="translate(-762 -612)">
    <circle id="Ellipse_66" data-name="Ellipse 66" cx="33" cy="33" r="33" transform="translate(762 612)" fill="url(#linear-gradient)"/>
    <g id="Group_285" data-name="Group 285" transform="translate(904.273 521.133)">
      <g id="Group_278" data-name="Group 278" transform="translate(-129.444 106.973)">
        <rect id="Rectangle_102" data-name="Rectangle 102" width="8.345" height="33.38" fill="none" stroke="#fff" stroke-linejoin="round" stroke-width="2"/>
        <line id="Line_138" data-name="Line 138" x2="4.868" transform="translate(3.477 4.172)" fill="none" stroke="#fff" stroke-linejoin="round" stroke-width="2"/>
        <line id="Line_139" data-name="Line 139" x2="3.477" transform="translate(4.868 8.345)" fill="none" stroke="#fff" stroke-linejoin="round" stroke-width="2"/>
        <line id="Line_140" data-name="Line 140" x2="3.477" transform="translate(4.868 12.518)" fill="none" stroke="#fff" stroke-linejoin="round" stroke-width="2"/>
        <line id="Line_141" data-name="Line 141" x2="4.868" transform="translate(3.477 16.69)" fill="none" stroke="#fff" stroke-linejoin="round" stroke-width="2"/>
        <line id="Line_142" data-name="Line 142" x2="3.477" transform="translate(4.868 20.863)" fill="none" stroke="#fff" stroke-linejoin="round" stroke-width="2"/>
        <line id="Line_143" data-name="Line 143" x2="3.477" transform="translate(4.868 25.035)" fill="none" stroke="#fff" stroke-linejoin="round" stroke-width="2"/>
        <line id="Line_144" data-name="Line 144" x2="4.868" transform="translate(3.477 29.208)" fill="none" stroke="#fff" stroke-linejoin="round" stroke-width="2"/>
      </g>
      <g id="Group_284" data-name="Group 284" transform="translate(-115.798 106.446)">
        <g id="Group_279" data-name="Group 279" transform="translate(5.439 28.071)">
          <path id="Path_144" data-name="Path 144" d="M-87.28,151.273h-18.555a.446.446,0,0,1-.446-.446,6.332,6.332,0,0,1,6.325-6.325h6.8a6.332,6.332,0,0,1,6.326,6.325A.447.447,0,0,1-87.28,151.273Zm-18.089-.893h17.625a5.439,5.439,0,0,0-5.414-4.985h-6.8A5.439,5.439,0,0,0-105.369,150.38Z" transform="translate(106.281 -144.502)" fill="#fff" stroke="#fff" stroke-miterlimit="10" stroke-width="1"/>
        </g>
        <g id="Group_280" data-name="Group 280" transform="translate(14.786 5.558)">
          <path id="Path_145" data-name="Path 145" d="M-93.263,133.367a.375.375,0,0,1-.346-.4v-4.349a23.947,23.947,0,0,1,1.414-8.158,21.649,21.649,0,0,1,4.027-6.916l2.909-3.338a.316.316,0,0,1,.49,0,.441.441,0,0,1,0,.562l-2.909,3.338a20.839,20.839,0,0,0-3.877,6.658,23.048,23.048,0,0,0-1.362,7.853v4.349A.375.375,0,0,1-93.263,133.367Z" transform="translate(93.609 -110.092)" fill="#fff" stroke="#fff" stroke-miterlimit="10" stroke-width="1"/>
        </g>
        <g id="Group_281" data-name="Group 281" transform="translate(5.439 13.38)">
          <path id="Path_146" data-name="Path 146" d="M-96.655,137.609a.436.436,0,0,1-.44-.432v-.1a10.38,10.38,0,0,0-.821-4.053,10.544,10.544,0,0,0-2.338-3.436l-6.038-5.928a.426.426,0,0,1,0-.61.445.445,0,0,1,.622,0l6.038,5.928a11.388,11.388,0,0,1,2.529,3.716,11.213,11.213,0,0,1,.888,4.383v.1A.436.436,0,0,1-96.655,137.609Z" transform="translate(106.421 -122.918)" fill="#fff" stroke="#fff" stroke-miterlimit="10" stroke-width="1"/>
        </g>
        <g id="Group_282" data-name="Group 282" transform="translate(16.723)">
          <path id="Path_147" data-name="Path 147" d="M-90.035,120.589c-.184,0-.291,0-.308-.005a.448.448,0,0,1-.42-.363,16.711,16.711,0,0,1-.2-3.6,13.6,13.6,0,0,1,.542-3.268,8.735,8.735,0,0,1,1.7-3.192,9.153,9.153,0,0,1,2.894-2.181,14.179,14.179,0,0,1,3.13-1.09,17.089,17.089,0,0,1,3.559-.444.447.447,0,0,1,.436.362,17.692,17.692,0,0,1,.227,3.71,13.939,13.939,0,0,1-.521,3.346,8.589,8.589,0,0,1-1.7,3.232h0a8.726,8.726,0,0,1-2.91,2.149,13.573,13.573,0,0,1-3.155,1.012A17.454,17.454,0,0,1-90.035,120.589Zm10.518-13.239a17.307,17.307,0,0,0-3,.415,10.433,10.433,0,0,0-5.526,2.981c-2.509,2.9-2.082,7.617-1.9,8.949a16.756,16.756,0,0,0,3.035-.318,12.647,12.647,0,0,0,2.937-.944,7.829,7.829,0,0,0,2.6-1.921l.338.292-.338-.292a9.98,9.98,0,0,0,2-6.01A17.8,17.8,0,0,0-79.517,107.35Z" transform="translate(90.983 -106.446)" fill="#fff" stroke="#fff" stroke-miterlimit="10" stroke-width="1"/>
        </g>
        <g id="Group_283" data-name="Group 283" transform="translate(0 8.268)">
          <path id="Path_148" data-name="Path 148" d="M-104.721,127.879c-.22,0-.45-.005-.689-.017a8.563,8.563,0,0,1-5.234-1.823,8.984,8.984,0,0,1-2.652-4.878,13.8,13.8,0,0,1-.358-2.874.447.447,0,0,1,.362-.436,14.278,14.278,0,0,1,3-.184,11.286,11.286,0,0,1,2.7.422,6.973,6.973,0,0,1,2.624,1.378,8.561,8.561,0,0,1,2.565,4.914,13.467,13.467,0,0,1,.264,2.9.446.446,0,0,1-.363.42A12.88,12.88,0,0,1-104.721,127.879Zm2.136-.617Zm-10.164-8.591a13.869,13.869,0,0,0,.328,2.312,8.289,8.289,0,0,0,2.361,4.381,7.852,7.852,0,0,0,4.674,1.6,13.359,13.359,0,0,0,2.356-.091,13.307,13.307,0,0,0-.253-2.344,7.85,7.85,0,0,0-2.267-4.391,7.918,7.918,0,0,0-4.763-1.582A14.22,14.22,0,0,0-112.749,118.671Z" transform="translate(113.655 -117.654)" fill="#fff" stroke="#fff" stroke-miterlimit="10" stroke-width="1"/>
        </g>
      </g>
    </g>
  </g>
</svg>
