<svg xmlns="http://www.w3.org/2000/svg" xmlns:xlink="http://www.w3.org/1999/xlink" width="66" height="66" viewBox="0 0 66 66">
  <defs>
    <linearGradient id="linear-gradient" x1="0.5" x2="0.5" y2="1" gradientUnits="objectBoundingBox">
      <stop offset="0" stop-color="#73cee3"/>
      <stop offset="1" stop-color="#00a7c1"/>
    </linearGradient>
  </defs>
  <g id="Group_287" data-name="Group 287" transform="translate(-386 -612)">
    <circle id="Ellipse_65" data-name="Ellipse 65" cx="33" cy="33" r="33" transform="translate(386 612)" fill="url(#linear-gradient)"/>
    <g id="Group_286" data-name="Group 286" transform="translate(-161.818 221.334)">
      <path id="Path_149" data-name="Path 149" d="M578.659,444.666c2.138-19.84-17.877-18.639-21.555-28,1.2,5.218-7.271,28,21.555,28Z" fill="none" stroke="#fff" stroke-linecap="round" stroke-linejoin="round" stroke-width="2"/>
      <path id="Path_150" data-name="Path 150" d="M575.99,426.608c4.192-10.722,19.817-14.681,22.828-21.942-.12,2.83,2,10.44,2,18,0,10.2-3.37,20.79-22,22" fill="none" stroke="#fff" stroke-linecap="round" stroke-linejoin="round" stroke-width="2"/>
      <path id="Path_151" data-name="Path 151" d="M575.009,430.866a15.049,15.049,0,0,1,.981-4.258" fill="none" stroke="#fff" stroke-linecap="round" stroke-linejoin="round" stroke-width="2"/>
      <path id="Path_152" data-name="Path 152" d="M562.818,430.666a25.373,25.373,0,0,0,16,14" fill="none" stroke="#fff" stroke-linecap="round" stroke-linejoin="round" stroke-width="2"/>
      <path id="Path_153" data-name="Path 153" d="M578.778,443.185a51.975,51.975,0,0,0,16.04-23.519" fill="none" stroke="#fff" stroke-linecap="round" stroke-linejoin="round" stroke-width="2"/>
      <path id="Path_154" data-name="Path 154" d="M584.818,423.853a18.619,18.619,0,0,0,.349,13" fill="none" stroke="#fff" stroke-linecap="round" stroke-linejoin="round" stroke-width="2"/>
      <path id="Path_155" data-name="Path 155" d="M595.818,429.6a10.423,10.423,0,0,1-10.651,7.246" fill="none" stroke="#fff" stroke-linecap="round" stroke-linejoin="round" stroke-width="2"/>
    </g>
  </g>
</svg>
